<svg width="246" height="280" viewBox="0 0 246 280" fill="none" xmlns="http://www.w3.org/2000/svg">
<path d="M60.7656 0C65.8804 0 70.027 4.47943 70.027 10.005V30.1871C78.2426 30.015 87.4508 30.015 97.8119 30.015H147.208C157.568 30.015 166.777 30.015 174.992 30.1871V10.005C174.992 4.47943 179.139 0 184.254 0C189.368 0 193.516 4.47943 193.516 10.005V31.0723C211.289 32.6098 222.958 36.3832 231.53 45.6438C240.103 54.9045 243.597 67.5092 245.02 86.71L246 96.715H11.3721H0V86.71C1.42323 67.5092 4.9163 54.9045 13.4888 45.6438C22.0614 36.3832 33.7298 32.6098 51.5038 31.0723V10.005C51.5038 4.47943 55.6504 0 60.7656 0Z" fill="#CAB400"/>
<path d="M246 166.979V138.874C246 127.083 245.961 106.064 245.802 96.7151H0.123118C-0.0356721 106.064 0.00454707 127.083 0.00454707 138.874V166.979C0.00454707 219.974 0.00454658 246.471 14.4146 262.935C28.8247 279.399 52.0174 279.399 98.4028 279.399H147.602C193.988 279.399 217.18 279.399 231.591 262.935C246 246.471 246 219.974 246 166.979Z" fill="#F0E58C"/>
<path fill-rule="evenodd" clip-rule="evenodd" d="M129.421 168.664C125.741 168.664 122.167 169.122 118.746 169.969L103.049 133.343H129.421C132.312 133.343 134.665 135.696 134.665 138.588C134.665 141.48 132.313 143.833 129.421 143.833C125.46 143.833 122.249 147.044 122.249 151.005C122.249 154.965 125.46 158.176 129.421 158.176C140.222 158.176 149.009 149.389 149.009 138.588C149.009 127.787 140.222 119 129.421 119H92.1722C89.7618 119 87.512 120.211 86.1846 122.224C84.8571 124.237 84.6304 126.781 85.58 128.997L91.9377 143.832L105.571 175.639C93.2164 183.535 85.0012 197.364 85.0012 213.083C85.0012 237.576 104.928 257.503 129.421 257.503C153.915 257.503 173.84 237.576 173.84 213.084C173.84 188.591 153.914 168.664 129.421 168.664ZM99.3439 213.084C99.3439 229.668 112.837 243.16 129.421 243.16C146.005 243.16 159.497 229.668 159.497 213.084C159.497 196.499 146.005 183.007 129.421 183.007C127.748 183.007 126.107 183.151 124.508 183.415L136.012 210.258C137.573 213.898 135.886 218.115 132.246 219.675C131.324 220.07 130.365 220.257 129.424 220.257C126.641 220.257 123.994 218.629 122.828 215.909L111.329 189.076C104.055 194.571 99.3439 203.286 99.3439 213.084Z" fill="#CAB400"/>
</svg>
